<svg data-v-0dd9719b="" version="1.0" xmlns="http://www.w3.org/2000/svg" xmlns:xlink="http://www.w3.org/1999/xlink" width="100%" height="100%" viewBox="0 0 340.000000 250.000000" preserveAspectRatio="xMidYMid meet" color-interpolation-filters="sRGB" style="margin: auto;"> <rect data-v-0dd9719b="" x="0" y="0" width="100%" height="100%" fill="#fff" fill-opacity="1" class="background"></rect> <rect data-v-0dd9719b="" x="0" y="0" width="100%" height="100%" fill="url(#watermark)" fill-opacity="1" class="watermarklayer"></rect> <g data-v-0dd9719b="" fill="#f9a208" class="icon-text-wrapper icon-svg-group iconsvg" transform="translate(88.37000274658203,67.51214218139648)"><g class="iconsvg-imagesvg" transform="translate(51.62999725341797,0)"><g><rect fill="#f9a208" fill-opacity="0" stroke-width="2" x="0" y="0" width="60.00000000000049" height="60.267588091125084" class="image-rect"></rect> <svg x="0" y="0" width="60.00000000000049" height="60.267588091125084" filtersec="colorsb7940568316" class="image-svg-svg primary" style="overflow: visible;"><svg xmlns="http://www.w3.org/2000/svg" viewBox="0 -0.000030737668566871434 751.2100830078125 754.56005859375"><g><g><path d="M376.44 0a376.37 376.37 0 0 1 169 40v339.79h-71.96V84.22a307.26 307.26 0 0 0-97-15.62c-170 0-307.85 137.86-307.85 307.84a306.61 306.61 0 0 0 75.29 201.68v94.33C56.27 603.52 0 496.54 0 376.44 0 168.58 168.57 0 376.44 0z" fill="#f9a208" fill-rule="evenodd"></path><path d="M339.63 230.88h71.94v292.79h-71.94z" fill="#333333"></path><path d="M374.77 754.56a376.42 376.42 0 0 1-169-40V374.77h71.94v295.57a307.3 307.3 0 0 0 97 15.62c170 0 307.84-137.86 307.84-307.84a306.6 306.6 0 0 0-75.28-201.68V82.11C694.93 151 751.21 258 751.21 378.12c0 207.88-168.58 376.44-376.44 376.44z" fill="#f2ae03" fill-rule="evenodd"></path></g></g></svg></svg> <!----></g></g> <g transform="translate(0,67.2675895690918)"><g data-gra="path-name" fill-rule="" class="tp-name iconsvg-namesvg" transform="translate(0,0)"><g transform="scale(1)"><g><path d="M11.38 0.45C21.06 0.45 24.07-3.19 24.07-9.4 24.07-15.07 23.13-17.55 15.34-19.57 11.47-20.56 10.8-20.88 10.8-22.32 10.8-23.8 11.92-24.48 14.8-24.48 17.28-24.48 21.2-23.89 22.5-23.4L22.5-30.55C20.75-31.14 18.31-31.68 14.4-31.68 6.93-31.68 2.16-29.34 2.16-21.96 2.16-16.43 3.78-14.26 10.62-12.69 14.54-11.74 15.12-10.98 15.12-9.67 15.12-7.74 14.63-7.11 10.89-7.11 8.1-7.11 4.46-7.69 2.38-8.28L2.38-0.58C4.59-0.04 7.92 0.45 11.38 0.45ZM51.12-31.23L27.31-31.23 27.31-23.4 34.74-23.4 34.74 0 43.65 0 43.65-23.4 51.12-23.4ZM63.9-7.69L63.9-12.11 74.38-12.11 74.38-19.53 63.9-19.53 63.9-23.49 75.33-23.49 75.33-31.23 54.94-31.23 54.94 0 75.6 0 75.6-7.69ZM108.18 0L99.81-11.43C103.59-12.82 105.25-15.75 105.25-20.79 105.25-28.21 101.11-31.23 93.15-31.23L80.46-31.23 80.46 0 89.41 0 89.41-10.48 91.17-10.48 97.6 0ZM89.41-24.39L91.57-24.39C95.22-24.39 96.44-23.67 96.44-20.79 96.44-17.86 95.22-16.88 91.57-16.88L89.41-16.88ZM119.88-7.69L119.88-12.11 130.37-12.11 130.37-19.53 119.88-19.53 119.88-23.49 131.31-23.49 131.31-31.23 110.92-31.23 110.92 0 131.58 0 131.58-7.69ZM136.44 0L145.26 0 145.26-20.88 145.53-20.88 152.95 0 165.42 0 165.42-31.23 156.69-31.23 156.69-11.65 156.42-11.65 149.94-31.23 136.44-31.23Z" transform="translate(-2.1600000858306885, 31.68000030517578)"></path></g> <!----> <!----> <!----> <!----> <!----> <!----> <!----></g></g> <g data-gra="path-slogan" fill-rule="" class="tp-slogan iconsvg-slogansvg" fill="#333333" transform="translate(5,39.130001068115234)"><rect x="0" height="1" y="3.7899999618530273" width="65.7799973487854"></rect> <rect height="1" y="3.7899999618530273" width="65.7799973487854" x="87.47999715805054"></rect> <g transform="translate(68.7799973487854,0)"><g transform="scale(1)"><path d="M2.06-5.06L6.56-5.06L6.56-8.58L7.73-8.58L7.73 0L6.56 0L6.56-3.98L2.06-3.98L2.06 0L0.89 0L0.89-8.58L2.06-8.58L2.06-5.06ZM12.05-4.31L10.69-3.05L10.69 0L9.52 0L9.52-8.58L10.69-8.58L10.69-4.41L14.86-8.58L16.50-8.58L12.89-5.11L16.59 0L15.05 0L12.05-4.31Z" transform="translate(-0.890625, 8.578125)"></path></g></g></g></g></g><defs v-gra="od"></defs></svg>